#!OML:ASF X:\für Bonn\!DataBase\2005_08_10_Bjorn_Final\c3d\bjorn.ASF
:FULLY-SPECIFIED
:DEGREES
108
root -0.137464 14.6347 8.88385 -2328.4 11.3892 161.492
lowerback 51.523 -14.374 6.76202
upperback 23.0818 -2.0657 2.4585
thorax 5.17571 3.15651 0.712303
lowerneck 7.88602 -6.51509 7.14838
upperneck -4.97899 -8.02356 0.0471196
head -3.32196 -4.14704 -0.782532
rclavicle -8.26944e-014 4.92986e-014
rhumerus -321.585 -40.6702 274.22
rradius 15.6918
rwrist -3.28683
rhand -18.8304 6.79086
rfingers 7.12502
rthumb 7.46882 -23.0573
lclavicle -8.26944e-014 4.92986e-014
lhumerus 7.01298 -26.6815 76.7792
lradius 32.9756
lwrist 1.9306
lhand -29.0245 -13.0708
lfingers 7.12502
lthumb -2.37541 736.896
rfemur -83.3056 -17.7973 0.931381
rtibia 88.8515
rfoot -14.932 21.4136
rtoes -7.16645
lfemur 104.665 173.517 147.841
ltibia 84.1484
lfoot -17.649 6.9397
ltoes -16.6915
109
root -0.157964 14.5069 8.89671 -2328.87 11.4575 161.402
lowerback 51.8666 -14.4595 6.71019
upperback 23.0887 -2.05707 2.48936
thorax 5.15744 3.17945 0.778187
lowerneck 7.89326 -6.54289 7.42773
upperneck -5.0187 -8.04323 -0.149226
head -3.364 -4.1555 -0.892076
rclavicle 8.26944e-014 1.39944e-013
rhumerus -321.665 -41.6827 273.653
rradius 16.0613
rwrist -5.01003
rhand -18.9545 6.32046
rfingers 7.12502
rthumb 7.34903 -23.5319
lclavicle 8.26944e-014 1.39944e-013
lhumerus 6.6377 -27.1077 76.805
lradius 33.5673
lwrist 2.93026
lhand -27.6125 -13.1147
lfingers 7.12502
lthumb -1.01163 736.863
rfemur -83.8028 -18.021 0.863012
rtibia 89.976
rfoot -15.1146 21.682
rtoes -7.29985
lfemur 104.263 173.456 147.804
ltibia 85.3715
lfoot -17.8403 7.06861
ltoes -16.751
110
root -0.177551 14.3762 8.90864 -2329.37 11.5235 161.298
lowerback 52.1823 -14.531 6.62586
upperback 23.1029 -2.05283 2.52157
thorax 5.15019 3.19759 0.860304
lowerneck 7.92497 -6.57265 7.73229
upperneck -5.04464 -8.06177 -0.367987
head -3.40894 -4.16249 -1.01328
rclavicle -4.13472e-014 7.95139e-015
rhumerus -321.63 -42.8724 272.912
rradius 16.376
rwrist -6.27201
rhand -18.9919 5.9834
rfingers 7.12502
rthumb 7.31299 -23.8702
lclavicle -4.13472e-014 7.95139e-015
lhumerus 6.21483 -27.5756 76.827
lradius 34.2293
lwrist 4.06152
lhand -26.0441 -13.1057
lfingers 7.12502
lthumb 0.503117 736.873
rfemur -84.3001 -18.2607 0.779554
rtibia 91.1206
rfoot -15.2788 21.977
rtoes -7.34296
lfemur 103.87 173.398 147.763
ltibia 86.6054
lfoot -18.0458 7.1853
ltoes -16.8633
111
root -0.196452 14.2425 8.92059 -2329.91 11.5498 161.185
lowerback 52.5313 -14.5983 6.52612
upperback 23.0803 -2.05277 2.58103
thorax 5.09969 3.20705 0.97789
lowerneck 8.07531 -6.61283 7.99032
upperneck -5.07429 -8.08517 -0.556961
head -3.4745 -4.17131 -1.11301
rclavicle -6.36111e-015 3.49861e-014
rhumerus -321.747 -44.0331 272.334
rradius 16.7299
rwrist -7.47853
rhand -18.9766 5.58326
rfingers 7.12502
rthumb 7.32773 -24.2698
lclavicle -6.36111e-015 3.49861e-014
lhumerus 5.66976 -28.0632 76.9236
lradius 34.9617
lwrist 5.32859
lhand -24.2373 -13.1297
lfingers 7.12502
lthumb 2.24817 736.838
rfemur -84.7459 -18.5369 0.685455
rtibia 92.2783
rfoot -15.4404 22.2672
rtoes -7.397
lfemur 103.525 173.373 147.738
ltibia 87.8467
lfoot -18.2643 7.30513
ltoes -17.027
112
root -0.214585 14.1058 8.93132 -2330.48 11.5732 161.069
lowerback 52.8421 -14.6565 6.41838
upperback 23.0671 -2.05414 2.62147
thorax 5.06284 3.21885 1.07823
lowerneck 8.30088 -6.66398 8.29429
upperneck -5.14504 -8.10822 -0.712869
head -3.57039 -4.18322 -1.20714
rclavicle 6.04305e-014 -1.30403e-013
rhumerus -321.927 -45.2175 271.78
rradius 17.0932
rwrist -8.4093
rhand -18.8648 5.2123
rfingers 7.12502
rthumb 7.43569 -24.637
lclavicle 6.04305e-014 -1.30403e-013
lhumerus 5.08615 -28.5356 77.0144
lradius 35.7509
lwrist 6.6908
lhand -22.1816 -13.032
lfingers 7.12502
lthumb 4.23337 736.906
rfemur -85.1868 -18.8366 0.594263
rtibia 93.4521
rfoot -15.5823 22.6056
rtoes -7.46598
lfemur 103.192 173.332 147.702
ltibia 89.1017
lfoot -18.5137 7.44965
ltoes -17.3441
113
root -0.231067 13.9669 8.94165 -2331.08 11.5753 160.979
lowerback 53.1539 -14.7004 6.30306
upperback 23.0533 -2.03594 2.69906
thorax 5.02716 3.23666 1.21549
lowerneck 8.55409 -6.71901 8.54229
upperneck -5.20601 -8.13685 -0.847481
head -3.66474 -4.19682 -1.28388
rclavicle 7.63333e-014 2.38542e-014
rhumerus -322.41 -46.2238 271.653
rradius 17.4771
rwrist -9.34865
rhand -18.6191 4.88748
rfingers 7.12502
rthumb 7.6728 -24.9533
lclavicle 7.63333e-014 2.38542e-014
lhumerus 4.44783 -28.9544 77.2081
lradius 36.5598
lwrist 8.05797
lhand -19.9765 -12.825
lfingers 7.12502
lthumb 6.36252 737.059
rfemur -85.6029 -19.1634 0.535919
rtibia 94.639
rfoot -15.7224 22.9548
rtoes -7.43347
lfemur 102.889 173.285 147.707
ltibia 90.3668
lfoot -18.7734 7.56983
ltoes -17.6408
